# xmcd CD database file
#
# Track frame offsets:
#	180
#	37125
#	68975
#	86215
#	109785
#	156050
#	184545
#	214680
#	254145
#	273770
#	300515
#	313540
#	337535
#
# Disc length: 4647 seconds
#
# Revision: 0
# Processed by: cddbd v1.5.2PL0 Copyright (c) Steve Scherf et al.
# Submitted via: CDex 1.70beta2
#
DISCID=b012250d
DTITLE=Jeanfrançois Prins - Judy Niemak - beauty and the prince
DYEAR=1993
DGENRE=Jazz
TTITLE0=Meaning of the blues
TTITLE1=The Blessing
TTITLE2=Love will grow
TTITLE3=Stolen Moments
TTITLE4=The Peacocjs
TTITLE5=Three Views of a Secret
TTITLE6=Bjudyful
TTITLE7=I Think of You
TTITLE8=Ladies in Mercedes
TTITLE9=Body and Soul
TTITLE10=That's What I Say
TTITLE11=Sojourn
TTITLE12=Young Folks
EXTD=YEAR: 1993
EXTT0=
EXTT1=
EXTT2=
EXTT3=
EXTT4=
EXTT5=
EXTT6=
EXTT7=
EXTT8=
EXTT9=
EXTT10=
EXTT11=
EXTT12=
PLAYORDER=
